<svg height="512pt" preserveAspectRatio="xMidYMid meet" viewBox="0 0 512 512" width="512pt" xmlns="http://www.w3.org/2000/svg"><path d="m2356 4364c-264-52-527-217-672-423l-29-41h-73c-144 0-320-53-442-132-90-58-218-189-268-274-94-158-127-294-119-478 10-224 83-394 239-554 110-113 271-204 415-233l62-13 3-620c3-610 3-622 24-667 32-69 91-128 159-161l60-28h845 845l60 28c68 33 127 92 159 161 21 45 21 57 24 667l3 620 62 13c144 29 305 120 415 233 156 160 229 330 239 554 8 184-25 320-119 478-50 85-178 216-268 274-122 79-298 132-442 132h-73l-29 41c-147 209-411 373-679 424-98 18-306 18-401-1zm384-250c203-39 407-180 524-362 67-104 76-108 216-104 207 6 337-43 470-177 119-120 171-247 171-421 0-161-52-292-164-409-117-121-260-182-428-183-85 0-219 24-219 39 0 3 26 35 59 71 102 118 166 223 215 360 41 114 30 184-34 217-61 31-146 5-168-53-6-15-23-58-38-97-80-205-241-376-441-466-206-94-480-94-686 0-200 90-361 261-441 466-15 39-32 82-38 97-22 58-107 84-168 53-64-33-75-103-34-217 49-137 113-242 215-360 33-36 59-68 59-71 0-2-28-12-62-22-94-26-233-23-333 9-250 79-417 306-416 566 0 174 52 301 171 421 133 134 263 183 470 177 137-4 150 2 206 90 143 224 369 365 629 392 84 8 164 4 265-16zm-526-1850c107-37 218-54 346-54 171 0 333 36 463 101l47 25 88-43c48-24 122-51 165-60l77-18v-596c0-593 0-596-21-615-20-18-48-19-819-19s-799 1-819 19c-21 19-21 22-21 615v596l78 18c42 9 115 36 162 60l85 42 50-24c28-13 81-34 119-47z" transform="matrix(.1 0 0 -.1 0 512)"/></svg>