<svg height="311" viewBox="0 0 311 311" width="311" xmlns="http://www.w3.org/2000/svg"><g fill="#c5c5c5" transform="matrix(-1 0 0 1 311 0)"><path d="m273.587 214.965c49.11-49.111 49.109-129.021 0-178.132-49.111-49.111-129.02-49.111-178.13 0-41.664 41.664-47.974 103.629-18.947 152.017 0 0 2.085 3.498-.731 6.312-16.065 16.064-64.263 64.263-64.263 64.263-12.791 12.79-15.836 30.675-4.493 42.02l1.953 1.951c11.343 11.345 29.229 8.301 42.019-4.49 0 0 48.096-48.097 64.128-64.128 2.951-2.951 6.448-.866 6.448-.866 48.387 29.026 110.352 22.717 152.016-18.947zm-154.876-23.255c-36.288-36.288-36.287-95.332.001-131.62 36.288-36.287 95.332-36.288 131.619 0 36.288 36.287 36.288 95.332 0 131.62-36.288 36.286-95.331 36.286-131.62 0z"/><path d="m126.75 118.424c-1.689 0-3.406-.332-5.061-1.031-6.611-2.798-9.704-10.426-6.906-17.038 17.586-41.559 65.703-61.062 107.261-43.476 6.611 2.798 9.704 10.426 6.906 17.038-2.799 6.612-10.425 9.703-17.039 6.906-28.354-11.998-61.186 1.309-73.183 29.663-2.099 4.959-6.913 7.938-11.978 7.938z"/></g></svg>